<?xml version="1.0" encoding="utf-8" standalone="no"?>
<!-- Generator: Adobe Illustrator 27.8.0, SVG Export Plug-In . SVG Version: 6.00 Build 0)  --><svg xmlns="http://www.w3.org/2000/svg" xmlns:xlink="http://www.w3.org/1999/xlink" id="Layer_1" style="enable-background:new 0 0 320.3 96;" version="1.1" viewBox="0 0 320.3 96" x="0px" xml:space="preserve" y="0px">
<style type="text/css">
	.st0{fill:#03B585;}
	.st1{fill-rule:evenodd;clip-rule:evenodd;fill:#004685;}
	.st2{fill:#004685;}
	.st3{clip-path:url(#SVGID_00000083091300802674243110000000216627599895994301_);}
	.st4{fill:url(#Layer_00000136381416620119108220000008122836011836386972_);}
	.st5{clip-path:url(#SVGID_00000123422730543620530060000016705986903263452588_);}
	.st6{fill:url(#Layer_00000141450169123666363410000002690461402304574086_);}
	.st7{clip-path:url(#SVGID_00000064313186484089230610000010957727061731762089_);}
	.st8{fill:url(#Layer_00000023989008170727611530000005274791039019356078_);}
	.st9{clip-path:url(#SVGID_00000085219474230971259920000014098433689519179419_);}
	.st10{fill:url(#Layer_00000132070677929972865530000007579468078914060718_);}
	.st11{clip-path:url(#SVGID_00000042732292976273942480000016484630903751395741_);}
	.st12{fill:url(#Layer_00000171721418731708464730000014836036977700167077_);}
	.st13{clip-path:url(#SVGID_00000081634634312336247810000003454228835958168218_);}
	.st14{fill:url(#Layer_00000128445714151060507760000017319680985996908469_);}
	.st15{clip-path:url(#SVGID_00000106147533023940283140000002750769180073418895_);}
	.st16{fill:url(#Layer_00000067950210987722972230000004878694432369812380_);}
	.st17{clip-path:url(#SVGID_00000003783963605744659190000010592689560923853991_);}
	.st18{fill:url(#Layer_00000108287105928702389660000013784329946078471834_);}
	.st19{clip-path:url(#SVGID_00000114776405644644433230000000736261142380180895_);}
	.st20{fill:url(#Layer_00000072277204729435940970000015624652117334613938_);}
	.st21{clip-path:url(#SVGID_00000074441988513958262620000014114855780094139274_);}
	.st22{fill:url(#Layer_00000065760920986740166500000005820107558733511604_);}
	.st23{clip-path:url(#SVGID_00000179623557058756618230000012258525735894913941_);}
	.st24{fill:url(#Layer_00000132070340695462269120000001472587263073963423_);}
	.st25{fill:#9FA1A4;}
</style>
<g>
	<g>
		<g>
			<g>
				<path class="st0" d="M281.5,43.3c8.5,0,15.2,6.9,15.2,15.8v30h-15.2V58.7h-15.2V43.3C266.2,43.3,281.5,43.3,281.5,43.3z       M266.2,58.7v30.4H251V58.7H266.2z M320.3,43.3v45.7c-8.5,0-15.2-7-15.2-15.2V43.3H320.3z"/>
			</g>
		</g>
	</g>
	<g id="Layer_00000083768484337478843650000017163098426999960972_">
		<g id="Layer_00000023263294825311519080000016134676897277805464_">
			<path class="st1" d="M91.1,89.1h-1.2h-5.1c-0.9,0-1.2,0-1.2,0     V66.9c0-0.7,0.2-0.7,1.2-0.7h8.8c4.3,0,12.6,0.2,12.6,6.5c0,4.3-4.3,5.4-6.2,6.2l9.5,10.3h-8.2l-7.9-9.4h-2.6L91.1,89.1     L91.1,89.1z M92.4,76.3c3.6,0,6.5-0.3,6.5-3.4c0-2.9-3.1-3.1-6-3.1h-2.1v6.3h1.6V76.3z" id="Layer_00000163062027152436329150000001308468694020890545_"/>
			<path class="st1" d="M147.8,89.8c-8.4,0-13.5-3.9-13.5-12     s5.1-12,13.5-12s13.5,3.9,13.5,12C161.3,85.8,156.1,89.8,147.8,89.8z M153.6,77.7c0-5.3-1.7-8.5-5.8-8.5s-5.8,3.2-5.8,8.5     c0,5.1,1.7,8.5,5.8,8.5C151.9,86.4,153.6,82.9,153.6,77.7z" id="Layer_00000007399748183165008150000004727680843587142280_"/>
			<path class="st2" d="M67.1,85.5H80v0.7v2.2v0.7H59.8V66.9     c0-0.3,0.3-0.6,1-0.6H61h19.2l-1.6,3.6H67.1v5.4h10.3v3.6H67.1L67.1,85.5z" id="Layer_00000002383078387192658800000011044796244197419955_"/>
			<path class="st2" d="M190.2,66.3v22.7H189h-3.6     c0,0-0.7,0.2-1.2-0.6c-0.6-0.6-13-15.2-13-15.2c0,0.6,0,1.3,0,2.9v12.9c0,0-0.2,0-1.2,0h-3.9c-0.9,0-1.2,0-1.2,0V66.9     c0-0.3,0.3-0.6,1-0.6h0.2h4.4c0.9,0,0.9,0,1.2,0.6l12.3,14.4c0-1-0.2-14.9-0.2-14.9h1.2h3.9h1.2V66.3z" id="Layer_00000099656065312544291380000004004916657719927957_"/>
			<path class="st2" d="M7.3,85.5h12.9v0.7v2.2v0.7H0V66.9     c0-0.6,0.2-0.7,1-0.7h0.2h19.2L18.9,70H7.3v5.4h10.3V79H7.3V85.5z" id="Layer_00000084512855825050132700000004388167062059248531_"/>
			<path class="st2" d="M39.9,80.4l8.4-13.6     c0.3-0.3,0.3-0.6,1.2-0.6H54h1.2v22.9c0,0-0.2,0-1.2,0h-3.9c-0.9,0-1.2,0-1.2,0V76.4c0-1.6,0-2.2,0-2.6c0,0-8.2,13.9-9.1,14.8     l0,0c-0.9-1-9.4-14.8-9.4-14.8c0,0.6,0,1,0,2.6v12.6c0,0-0.2,0-1.2,0h-3.9c-0.9,0-1.2,0-1.2,0V66.3h1.2h4.4c0.9,0,0.9,0,1.2,0.6     l8.8,13.6L39.9,80.4z" id="Layer_00000055702945056539124010000014416182770410642833_"/>
			<path class="st2" d="M132,82.6c0.2,5-4.7,7-11.1,7     c-4.1,0-8.4-0.9-10.1-1.6l-0.9-0.3l1-1.9l0.6-1c0.2-0.2,0.3-0.3,0.6-0.3c0.3,0,4.1,1.6,8.5,1.6c2.9,0,4.1-1,4.1-3.1     c0-2.9-5.3-2.9-10.4-5c-2.8-1-3.9-2.8-3.9-5.7c0-4.8,5.3-6.9,11.3-6.9c3.2,0,6.7,0.7,8.5,1.3c0.2,0,0.3,0.2,0.7,0.3     c0.6,0.2,0.7,0.3,0.9,0.3l0,0l0,0l-1.9,2.4l-0.3,0.6c-0.2,0.2-0.3,0.3-0.6,0.3c-0.3,0-3.4-1.6-7.2-1.6c-2.4,0-4.4,0.7-4.4,2.6     c0,2.6,6.2,2.8,10.8,5C130.8,78.2,131.8,80.2,132,82.6L132,82.6z" id="Layer_00000139262286939461945990000016194158382841162630_"/>
			<path class="st2" d="M194.3,86.5v2.6h-0.3v-2.6h-1v-0.2h2.4v0.2     H194.3z" id="Layer_00000041273624507715925830000017926337750804902534_"/>
			<path class="st2" d="M198.6,89.1v-2.6l-1,2.6h-0.3l-1-2.6v2.6     h-0.3v-2.9h0.7l1,2.4l1-2.4h0.7v2.9H198.6z" id="Layer_00000141419880909092582400000016785100599891079340_"/>
		</g>
		<g>
			<g id="Layer_00000020370268139972361030000007090322749693445517_">
				<g>
					<g>
						<g>
							<defs>
								<path d="M95.5,6.2c0,0.2-0.2,0.6,1.3,2.4l16.4,20.1c0.6,0.7,0.9,1,0.7,1.3l0,0c-0.2,0.2-0.6,0.3-2.6-0.6          l-6.1-2.6c0,0-12.3-15.1-12.5-15.5c0-0.2,0-0.3,0-0.3L95.5,6.2z" id="SVGID_1_"/>
							</defs>
							<clipPath id="SVGID_00000049205083988067531390000013724524433555657608_">
								<use style="overflow:visible;" xlink:href="#SVGID_1_"/>
							</clipPath>
							
								<g id="Clip-Path_00000096757864856870659880000010048012578070804891_" style="clip-path:url(#SVGID_00000049205083988067531390000013724524433555657608_);">
								
									<linearGradient gradientTransform="matrix(1 0 0 -1 0 100)" gradientUnits="userSpaceOnUse" id="Layer_00000137819748514042468740000009969438039959516599_" x1="92.1285" x2="116.2241" y1="88.0583" y2="73.9869">
									<stop offset="0" style="stop-color:#949698"/>
									<stop offset="0.1" style="stop-color:#9FA1A3"/>
									<stop offset="0.3" style="stop-color:#BCBEBF"/>
									<stop offset="0.5" style="stop-color:#E7E8E9"/>
									<stop offset="0.6" style="stop-color:#DDDEDF"/>
									<stop offset="0.8" style="stop-color:#C2C3C5"/>
									<stop offset="1" style="stop-color:#96989A"/>
									<stop offset="1" style="stop-color:#949698"/>
								</linearGradient>
								
									<path d="          M98-3l26.5,15.5l-16,27.4L82,24.4L98-3z" id="Layer_00000152231277972353413260000011238974339421924782_" style="fill:url(#Layer_00000137819748514042468740000009969438039959516599_);"/>
							</g>
						</g>
					</g>
				</g>
			</g>
			<g id="Layer_00000135681693649839031870000009670250841482161564_">
				<g>
					<g>
						<g>
							<defs>
								<path d="M84.8,24.7L84.8,24.7c0.3,0,1,0.2,2.1,0.7l6.2,2.6          l3.2,3.9l-10.1-4.3L85,25.9c-0.6-0.7-0.9-1.2-0.7-1.3l0,0C84.4,24.9,84.5,24.7,84.8,24.7L84.8,24.7z" id="SVGID_00000024717317767356869390000011887900094575496111_"/>
							</defs>
							<clipPath id="SVGID_00000145035792992850955130000004322611180397647268_">
								<use style="overflow:visible;" xlink:href="#SVGID_00000024717317767356869390000011887900094575496111_"/>
							</clipPath>
							
								<g id="Clip-Path_00000131364532296812668110000018041206834176672663_" style="clip-path:url(#SVGID_00000145035792992850955130000004322611180397647268_);">
								
									<linearGradient gradientTransform="matrix(1 0 0 -1 0 100)" gradientUnits="userSpaceOnUse" id="Layer_00000052100848789024464650000009670562464969781907_" x1="84.4262" x2="96.4677" y1="75.1319" y2="68.1023">
									<stop offset="0" style="stop-color:#949698"/>
									<stop offset="0.2" style="stop-color:#9FA1A3"/>
									<stop offset="0.6" style="stop-color:#BCBEBF"/>
									<stop offset="1" style="stop-color:#E7E8E9"/>
								</linearGradient>
								
									<path d="          M87.3,19.4l12.2,7.2l-6.2,10.7L81.1,30L87.3,19.4z" id="Layer_00000061444002167546482860000013378200919617037958_" style="fill:url(#Layer_00000052100848789024464650000009670562464969781907_);"/>
							</g>
						</g>
					</g>
				</g>
			</g>
			<g id="Layer_00000070088945364127143510000006343223023031531686_">
				<g>
					<g>
						<g>
							<defs>
								<path d="M87.7,19.9c0.3,0,0.9,0.2,1,0.2l22.6,9.5          c2.1,0.9,2.4,0.7,2.6,0.6l0,0l-2.8,4.8l-0.2,0.2c-0.3,0.2-1,0-1.3-0.2l-22.4-9.4c-1.9-0.9-2.4-0.7-2.6-0.6l0,0l2.9-4.8          c0,0,0,0,0.2-0.2C87.4,19.9,87.4,19.9,87.7,19.9L87.7,19.9z" id="SVGID_00000001656236938484466570000005922127043796536502_"/>
							</defs>
							<clipPath id="SVGID_00000039124067810677895410000008626265686062648479_">
								<use style="overflow:visible;" xlink:href="#SVGID_00000001656236938484466570000005922127043796536502_"/>
							</clipPath>
							
								<g id="Clip-Path_00000077322540788096097230000007039310396017461177_" style="clip-path:url(#SVGID_00000039124067810677895410000008626265686062648479_);">
								
									<linearGradient gradientTransform="matrix(1 0 0 -1 0 100)" gradientUnits="userSpaceOnUse" id="Layer_00000099644859644068263290000017749132136802803623_" x1="87.0409" x2="111.2117" y1="79.5694" y2="65.4479">
									<stop offset="0" style="stop-color:#004786"/>
									<stop offset="0.2" style="stop-color:#004786"/>
									<stop offset="0.3" style="stop-color:#175490"/>
									<stop offset="0.4" style="stop-color:#5076A9"/>
									<stop offset="0.5" style="stop-color:#7289B7"/>
									<stop offset="0.6" style="stop-color:#5B7CAD"/>
									<stop offset="0.7" style="stop-color:#1A5691"/>
									<stop offset="0.8" style="stop-color:#004786"/>
									<stop offset="1" style="stop-color:#004786"/>
								</linearGradient>
								
									<path d="          M92,7.1l28.6,16.6L106.3,48L77.8,31.4L92,7.1z" id="Layer_00000183223715399517457000000016171299644891721615_" style="fill:url(#Layer_00000099644859644068263290000017749132136802803623_);"/>
							</g>
						</g>
					</g>
				</g>
			</g>
			<g id="Layer_00000135667067832114999510000006048985817590610093_">
				<g>
					<g>
						<g>
							<defs>
								<path d="M80.8,31.7c0.3,0,1,0.2,2.1,0.7l6.2,2.6l3.2,3.9          h-0.2l0,0l-9.9-4.1L81,33.1c-0.6-0.7-0.9-1.2-0.7-1.3l0,0C80.4,31.7,80.4,31.7,80.8,31.7L80.8,31.7z" id="SVGID_00000024692010554599100930000014014137813976658843_"/>
							</defs>
							<clipPath id="SVGID_00000101103578997820001010000011318021325627992730_">
								<use style="overflow:visible;" xlink:href="#SVGID_00000024692010554599100930000014014137813976658843_"/>
							</clipPath>
							
								<g id="Clip-Path_00000087397651406812239320000003874505621835497380_" style="clip-path:url(#SVGID_00000101103578997820001010000011318021325627992730_);">
								
									<linearGradient gradientTransform="matrix(1 0 0 -1 0 100)" gradientUnits="userSpaceOnUse" id="Layer_00000147912826531378342140000014349105907784647827_" x1="80.2434" x2="92.2849" y1="68.0762" y2="61.0467">
									<stop offset="0" style="stop-color:#949698"/>
									<stop offset="0.2" style="stop-color:#9FA1A3"/>
									<stop offset="0.6" style="stop-color:#BCBEBF"/>
									<stop offset="1" style="stop-color:#E7E8E9"/>
								</linearGradient>
								
									<path d="          M83.2,26.5l12.2,7.2l-6.2,10.7L77,37.1L83.2,26.5z" id="Layer_00000098218203629817990980000000701825040373094829_" style="fill:url(#Layer_00000147912826531378342140000014349105907784647827_);"/>
							</g>
						</g>
					</g>
				</g>
			</g>
			<g id="Layer_00000119821954946620499810000014947632627134860974_">
				<g>
					<g>
						<g>
							<defs>
								<path d="M76.7,38.6c0.3,0,1,0.2,2.1,0.7l6.2,2.6l11.8,14.4          c0.3,0.3,0.7,0.9,0.7,1c0,0.1,0,0.3,0,0.3l-2.9,4.9c0.2-0.2,0.2-0.6-1.3-2.4L76.7,39.9c-0.6-0.7-0.9-1.2-0.7-1.3l0,0          C76.3,38.6,76.3,38.6,76.7,38.6L76.7,38.6z" id="SVGID_00000003085894692947809860000011847339691295676351_"/>
							</defs>
							<clipPath id="SVGID_00000069358385109732883530000002832858346605958816_">
								<use style="overflow:visible;" xlink:href="#SVGID_00000003085894692947809860000011847339691295676351_"/>
							</clipPath>
							
								<g id="Clip-Path_00000013178940499555641760000017371987642407631773_" style="clip-path:url(#SVGID_00000069358385109732883530000002832858346605958816_);">
								
									<linearGradient gradientTransform="matrix(1 0 0 -1 0 100)" gradientUnits="userSpaceOnUse" id="Layer_00000046307295333530176230000001956112000654572221_" x1="73.7962" x2="97.8794" y1="57.0453" y2="42.9864">
									<stop offset="0" style="stop-color:#949698"/>
									<stop offset="0.1" style="stop-color:#9FA1A3"/>
									<stop offset="0.3" style="stop-color:#BCBEBF"/>
									<stop offset="0.5" style="stop-color:#E7E8E9"/>
									<stop offset="0.6" style="stop-color:#DDDEDF"/>
									<stop offset="0.8" style="stop-color:#C2C3C5"/>
									<stop offset="1" style="stop-color:#96989A"/>
									<stop offset="1" style="stop-color:#949698"/>
								</linearGradient>
								
									<path d="          M81.4,29.1l26.4,15.4L92,71.7L65.6,56.4L81.4,29.1z" id="Layer_00000165937418419476025880000012560979809108179897_" style="fill:url(#Layer_00000046307295333530176230000001956112000654572221_);"/>
							</g>
						</g>
					</g>
				</g>
			</g>
			<g id="Layer_00000156561299158337205970000010954696380473521315_">
				<g>
					<g>
						<g>
							<defs>
								<path d="M79.4,33.8c0.3,0,0.9,0.2,1,0.2l1.6,0.7l20.9,8.8          c2.1,0.9,2.4,0.7,2.6,0.6l0,0l-2.8,4.8l-0.2,0.2c-0.3,0.2-1,0-1.3-0.2l-22.3-9.5c-1.9-0.9-2.4-0.7-2.6-0.6l2.9-4.8l0,0l0,0          C79.2,33.8,79.4,33.8,79.4,33.8z" id="SVGID_00000027581544720721639060000009342397868522843026_"/>
							</defs>
							<clipPath id="SVGID_00000151515989564415668780000004640990500894924183_">
								<use style="overflow:visible;" xlink:href="#SVGID_00000027581544720721639060000009342397868522843026_"/>
							</clipPath>
							
								<g id="Clip-Path_00000026132594595449044140000008148187607299127214_" style="clip-path:url(#SVGID_00000151515989564415668780000004640990500894924183_);">
								
									<linearGradient gradientTransform="matrix(1 0 0 -1 0 100)" gradientUnits="userSpaceOnUse" id="Layer_00000047043765892594331760000012291607907820951429_" x1="78.8576" x2="103.0286" y1="65.7631" y2="51.6414">
									<stop offset="0" style="stop-color:#004786"/>
									<stop offset="0.2" style="stop-color:#004786"/>
									<stop offset="0.3" style="stop-color:#175490"/>
									<stop offset="0.4" style="stop-color:#5076A9"/>
									<stop offset="0.5" style="stop-color:#7289B7"/>
									<stop offset="0.6" style="stop-color:#5B7CAD"/>
									<stop offset="0.7" style="stop-color:#1A5691"/>
									<stop offset="0.8" style="stop-color:#004786"/>
									<stop offset="1" style="stop-color:#004786"/>
								</linearGradient>
								
									<path d="          M83.8,20.9l28.6,16.6L98.1,61.6L69.5,45L83.8,20.9z" id="Layer_00000155114247090188920080000016968339010734423471_" style="fill:url(#Layer_00000047043765892594331760000012291607907820951429_);"/>
							</g>
						</g>
					</g>
				</g>
			</g>
			<g id="Layer_00000088843385391441463710000007655122773326965679_">
				<g>
					<g>
						<g>
							<defs>
								<path d="M107.8,34.1l1.2,1.6c0.6,0.7,0.9,1,0.7,1.3l0,0          c-0.2,0.2-0.6,0.3-2.6-0.6l-6.2-2.6L97.7,30L107.8,34.1z" id="SVGID_00000072997343692421955950000004072861237764437394_"/>
							</defs>
							<clipPath id="SVGID_00000133517781039570379720000007698651596572263579_">
								<use style="overflow:visible;" xlink:href="#SVGID_00000072997343692421955950000004072861237764437394_"/>
							</clipPath>
							
								<g id="Clip-Path_00000083770469045280374830000018167014165757405343_" style="clip-path:url(#SVGID_00000133517781039570379720000007698651596572263579_);">
								
									<linearGradient gradientTransform="matrix(1 0 0 -1 0 100)" gradientUnits="userSpaceOnUse" id="Layer_00000165215840063992774210000012867591199164680847_" x1="97.6801" x2="109.7217" y1="70.0328" y2="62.9907">
									<stop offset="0" style="stop-color:#E7E8E9"/>
									<stop offset="0.2" style="stop-color:#DDDEDF"/>
									<stop offset="0.5" style="stop-color:#C2C3C5"/>
									<stop offset="1" style="stop-color:#96989A"/>
									<stop offset="1" style="stop-color:#949698"/>
								</linearGradient>
								
									<path d="          M100.9,24.6l12.3,7.2l-6.3,10.8l-12.3-7.2L100.9,24.6z" id="Layer_00000144305088042625712080000018193896470025691057_" style="fill:url(#Layer_00000165215840063992774210000012867591199164680847_);"/>
							</g>
						</g>
					</g>
				</g>
			</g>
			<g id="Layer_00000053526116840042522350000016704145534311022993_">
				<g>
					<g>
						<g>
							<defs>
								<path d="M83.5,26.9c0.3,0,0.9,0.2,1,0.2l1.6,0.7l14.8,6.2          l6.2,2.6c2.1,0.9,2.4,0.7,2.6,0.6l0,0l-2.8,4.8l-0.2,0.2c-0.3,0.2-1,0-1.3-0.2l-22.4-9.4c-1.9-0.9-2.4-0.7-2.6-0.6l0,0          l2.9-4.8c0,0,0,0,0-0.2C83.3,26.9,83.3,26.9,83.5,26.9L83.5,26.9z" id="SVGID_00000027600446344853645580000004910491167071116962_"/>
							</defs>
							<clipPath id="SVGID_00000039119298252252148240000014704949289900807809_">
								<use style="overflow:visible;" xlink:href="#SVGID_00000027600446344853645580000004910491167071116962_"/>
							</clipPath>
							
								<g id="Clip-Path_00000024711859738051820000000016487994471872377751_" style="clip-path:url(#SVGID_00000039119298252252148240000014704949289900807809_);">
								
									<linearGradient gradientTransform="matrix(1 0 0 -1 0 100)" gradientUnits="userSpaceOnUse" id="Layer_00000170248725877065712380000015856841449445039290_" x1="82.9016" x2="107.0851" y1="72.6187" y2="58.4972">
									<stop offset="0" style="stop-color:#004786"/>
									<stop offset="0.2" style="stop-color:#004786"/>
									<stop offset="0.3" style="stop-color:#175490"/>
									<stop offset="0.4" style="stop-color:#5076A9"/>
									<stop offset="0.5" style="stop-color:#7289B7"/>
									<stop offset="0.6" style="stop-color:#5B7CAD"/>
									<stop offset="0.7" style="stop-color:#1A5691"/>
									<stop offset="0.8" style="stop-color:#004786"/>
									<stop offset="1" style="stop-color:#004786"/>
								</linearGradient>
								
									<path d="          M87.9,14l28.6,16.6l-14.3,24.2L73.6,38.2L87.9,14z" id="Layer_00000177455648615987551650000006350376886193631648_" style="fill:url(#Layer_00000170248725877065712380000015856841449445039290_);"/>
							</g>
						</g>
					</g>
				</g>
			</g>
			<g id="Layer_00000026128718108107199660000017149607429726849207_">
				<g>
					<g>
						<g>
							<defs>
								<path d="M99.6,47.8c0,0,1.7,2.2,1.9,2.6c0,0.2,0,0.3,0,0.3          l-2.9,4.8c0.2-0.2,0.2-0.6-1.3-2.4l-8-9.4L99.6,47.8z" id="SVGID_00000104672537502174947440000008045066799054672545_"/>
							</defs>
							<clipPath id="SVGID_00000022535661779610525220000003206812684809237416_">
								<use style="overflow:visible;" xlink:href="#SVGID_00000104672537502174947440000008045066799054672545_"/>
							</clipPath>
							
								<g id="Clip-Path_00000106843391907477774390000000443582192790942101_" style="clip-path:url(#SVGID_00000022535661779610525220000003206812684809237416_);">
								
									<linearGradient gradientTransform="matrix(1 0 0 -1 0 100)" gradientUnits="userSpaceOnUse" id="Layer_00000010991733330879359590000000821311214855860649_" x1="88.5493" x2="100.5909" y1="54.5709" y2="47.5415">
									<stop offset="0" style="stop-color:#E7E8E9"/>
									<stop offset="0.2" style="stop-color:#DDDEDF"/>
									<stop offset="0.5" style="stop-color:#C2C3C5"/>
									<stop offset="1" style="stop-color:#96989A"/>
									<stop offset="1" style="stop-color:#949698"/>
								</linearGradient>
								
									<path d="          M92.6,38.5l14.2,8.2l-8.2,14.1l-14.2-8.3L92.6,38.5z" id="Layer_00000065043498747360862560000010779767276266899337_" style="fill:url(#Layer_00000010991733330879359590000000821311214855860649_);"/>
							</g>
						</g>
					</g>
				</g>
			</g>
			<g id="Layer_00000111184031095193495460000008577698552527168392_">
				<g>
					<g>
						<g>
							<defs>
								<path d="M103.7,41l1.2,1.6c0.6,0.7,0.9,1,0.7,1.3l0,0          c-0.2,0.2-0.6,0.3-2.6-0.6l-6.2-2.6l-3.2-3.9L103.7,41z" id="SVGID_00000059295420176654973130000013957833314958928777_"/>
							</defs>
							<clipPath id="SVGID_00000137817298041413730750000017784877696001027466_">
								<use style="overflow:visible;" xlink:href="#SVGID_00000059295420176654973130000013957833314958928777_"/>
							</clipPath>
							
								<g id="Clip-Path_00000111152890118659868470000016731000657990911372_" style="clip-path:url(#SVGID_00000137817298041413730750000017784877696001027466_);">
								
									<linearGradient gradientTransform="matrix(1 0 0 -1 0 100)" gradientUnits="userSpaceOnUse" id="Layer_00000159452293112309419100000010437184445962628796_" x1="93.5355" x2="105.577" y1="63.0593" y2="56.0299">
									<stop offset="0" style="stop-color:#E7E8E9"/>
									<stop offset="0" style="stop-color:#E7E8E9"/>
									<stop offset="0.2" style="stop-color:#DDDEDF"/>
									<stop offset="0.6" style="stop-color:#C2C3C5"/>
									<stop offset="1" style="stop-color:#96989A"/>
									<stop offset="1" style="stop-color:#949698"/>
								</linearGradient>
								
									<path d="          M96.8,31.6l12.3,7.2l-6.3,10.8l-12.3-7.2L96.8,31.6z" id="Layer_00000096031007815245007970000016659246640663781031_" style="fill:url(#Layer_00000159452293112309419100000010437184445962628796_);"/>
							</g>
						</g>
					</g>
				</g>
			</g>
			<g id="Layer_00000021078853044477433850000006249284842948713374_">
				<g>
					<g>
						<g>
							<defs>
								<path d="M91.4,13.3c0,0.2-0.2,0.6,1.3,2.4l7.9,9.5          l-10.1-4.3l-1.2-1.6c-0.3-0.6-0.7-0.9-0.7-1s0-0.3,0-0.3L91.4,13.3z" id="SVGID_00000183955028792510464240000015180808893946500276_"/>
							</defs>
							<clipPath id="SVGID_00000139975425295408806440000006036158931865804473_">
								<use style="overflow:visible;" xlink:href="#SVGID_00000183955028792510464240000015180808893946500276_"/>
							</clipPath>
							
								<g id="Clip-Path_00000044154475301499653510000016521555588076841104_" style="clip-path:url(#SVGID_00000139975425295408806440000006036158931865804473_);">
								
									<linearGradient gradientTransform="matrix(1 0 0 -1 0 100)" gradientUnits="userSpaceOnUse" id="Layer_00000094579744246305133680000011895847722891468444_" x1="89.5249" x2="101.5664" y1="83.7455" y2="76.716">
									<stop offset="0" style="stop-color:#949698"/>
									<stop offset="0.2" style="stop-color:#9FA1A3"/>
									<stop offset="0.6" style="stop-color:#BCBEBF"/>
									<stop offset="1" style="stop-color:#E7E8E9"/>
								</linearGradient>
								
									<path d="          M91.4,7.9l14.2,8.2l-8.2,14.2l-14.2-8.4L91.4,7.9z" id="Layer_00000031196687881383405530000007556236533807133620_" style="fill:url(#Layer_00000094579744246305133680000011895847722891468444_);"/>
							</g>
						</g>
					</g>
				</g>
			</g>
		</g>
	</g>
	<g>
		<rect class="st25" height="45.7" width="0.6" x="220.1" y="43.3"/>
	</g>
</g>
</svg>
